<svg width="25" height="25" viewBox="0 0 25 25" fill="none" xmlns="http://www.w3.org/2000/svg">
<path d="M2.67773 0C1.19895 0 0 1.19895 0 2.67773V22.3223C0 23.8011 1.19895 25 2.67773 25H22.3223C23.8011 25 25 23.8011 25 22.3223V2.67773C25 1.19895 23.8011 0 22.3223 0H2.67773ZM20.7188 4.89844C21.0214 4.87146 21.2894 5.14699 21.2227 5.46875L18.2598 19.7266C18.1899 20.0632 17.7942 20.2162 17.5156 20.0137L13.4688 17.0742C13.223 16.8958 12.8895 16.906 12.6543 17.0977L10.4102 18.9258C10.1497 19.1387 9.75788 19.0201 9.6582 18.6992L8.09961 13.6895L4.07617 12.1875C3.66742 12.0343 3.6627 11.458 4.07031 11.3008L20.5879 4.92969C20.6317 4.91276 20.6755 4.90229 20.7188 4.89844ZM17.3242 8.02539C17.3069 8.02825 17.2892 8.03602 17.2715 8.04688L9.40625 12.8906C9.10478 13.0767 8.96315 13.4404 9.06055 13.7812L9.91016 16.7695C9.97053 16.9813 10.2793 16.959 10.3086 16.7402L10.5293 15.1016C10.571 14.793 10.7171 14.5093 10.9453 14.2969L17.4375 8.26367C17.5437 8.16515 17.4451 8.00536 17.3242 8.02539Z" fill="#918E9B"/>
</svg>
